<mxfile host="www.draw.io" modified="2019-12-24T17:13:34.252Z" agent="Mozilla/5.0 (X11; Linux x86_64) AppleWebKit/537.36 (KHTML, like Gecko) Chrome/68.0.3440.75 Safari/537.36" etag="B1SJJEE5jLmo0uXTUQyf" version="12.4.3" type="github" pages="1">
  <diagram id="JtAh7YlJ69pbtDSkBTyl" name="Page-1">
    <mxGraphModel dx="782" dy="501" grid="1" gridSize="10" guides="1" tooltips="1" connect="1" arrows="1" fold="1" page="1" pageScale="1" pageWidth="827" pageHeight="1169" math="0" shadow="0">
      <root>
        <mxCell id="0"/>
        <mxCell id="1" parent="0"/>
        <mxCell id="RIlo6Lyj0Yrd-4PUd2Lp-1" value="&lt;font style=&quot;font-size: 18px&quot;&gt;帮助孩子寻找学习方法&lt;/font&gt;" style="rounded=1;whiteSpace=wrap;html=1;fillColor=#f8cecc;strokeColor=#b85450;gradientColor=#ea6b66;" parent="1" vertex="1">
          <mxGeometry x="30" y="385" width="190" height="85" as="geometry"/>
        </mxCell>
        <mxCell id="RIlo6Lyj0Yrd-4PUd2Lp-4" value="学习通道" style="rounded=1;whiteSpace=wrap;html=1;gradientColor=#ffa500;fillColor=#ffcd28;strokeColor=#d79b00;" parent="1" vertex="1">
          <mxGeometry x="270" y="70" width="70" height="30" as="geometry"/>
        </mxCell>
        <mxCell id="RIlo6Lyj0Yrd-4PUd2Lp-9" value="" style="edgeStyle=orthogonalEdgeStyle;rounded=0;orthogonalLoop=1;jettySize=auto;html=1;" parent="1" source="RIlo6Lyj0Yrd-4PUd2Lp-5" target="RIlo6Lyj0Yrd-4PUd2Lp-8" edge="1">
          <mxGeometry relative="1" as="geometry"/>
        </mxCell>
        <mxCell id="RIlo6Lyj0Yrd-4PUd2Lp-5" value="视" style="rounded=1;whiteSpace=wrap;html=1;gradientColor=#ffa500;fillColor=#ffcd28;strokeColor=#d79b00;" parent="1" vertex="1">
          <mxGeometry x="390" y="10" width="70" height="30" as="geometry"/>
        </mxCell>
        <mxCell id="RIlo6Lyj0Yrd-4PUd2Lp-8" value="主动的预习,获得认知初识" style="rounded=1;whiteSpace=wrap;html=1;gradientColor=#ffa500;fillColor=#ffcd28;strokeColor=#d79b00;" parent="1" vertex="1">
          <mxGeometry x="500" y="10" width="100" height="30" as="geometry"/>
        </mxCell>
        <mxCell id="RIlo6Lyj0Yrd-4PUd2Lp-11" value="" style="edgeStyle=orthogonalEdgeStyle;rounded=0;orthogonalLoop=1;jettySize=auto;html=1;" parent="1" source="RIlo6Lyj0Yrd-4PUd2Lp-6" target="RIlo6Lyj0Yrd-4PUd2Lp-10" edge="1">
          <mxGeometry relative="1" as="geometry"/>
        </mxCell>
        <mxCell id="RIlo6Lyj0Yrd-4PUd2Lp-6" value="听" style="rounded=1;whiteSpace=wrap;html=1;gradientColor=#ffa500;fillColor=#ffcd28;strokeColor=#d79b00;" parent="1" vertex="1">
          <mxGeometry x="390" y="70" width="70" height="30" as="geometry"/>
        </mxCell>
        <mxCell id="RIlo6Lyj0Yrd-4PUd2Lp-10" value="阅读,获得新的记忆" style="rounded=1;whiteSpace=wrap;html=1;gradientColor=#ffa500;fillColor=#ffcd28;strokeColor=#d79b00;" parent="1" vertex="1">
          <mxGeometry x="500" y="70" width="110" height="30" as="geometry"/>
        </mxCell>
        <mxCell id="RIlo6Lyj0Yrd-4PUd2Lp-13" value="" style="edgeStyle=orthogonalEdgeStyle;rounded=0;orthogonalLoop=1;jettySize=auto;html=1;" parent="1" source="RIlo6Lyj0Yrd-4PUd2Lp-7" target="RIlo6Lyj0Yrd-4PUd2Lp-12" edge="1">
          <mxGeometry relative="1" as="geometry"/>
        </mxCell>
        <mxCell id="RIlo6Lyj0Yrd-4PUd2Lp-7" value="动" style="rounded=1;whiteSpace=wrap;html=1;gradientColor=#ffa500;fillColor=#ffcd28;strokeColor=#d79b00;" parent="1" vertex="1">
          <mxGeometry x="390" y="135" width="70" height="30" as="geometry"/>
        </mxCell>
        <mxCell id="RIlo6Lyj0Yrd-4PUd2Lp-12" value="整理笔记,获得思考" style="rounded=1;whiteSpace=wrap;html=1;gradientColor=#ffa500;fillColor=#ffcd28;strokeColor=#d79b00;" parent="1" vertex="1">
          <mxGeometry x="500" y="135" width="110" height="30" as="geometry"/>
        </mxCell>
        <mxCell id="RIlo6Lyj0Yrd-4PUd2Lp-14" value="" style="edgeStyle=elbowEdgeStyle;elbow=horizontal;endArrow=classic;html=1;exitX=1;exitY=0.5;exitDx=0;exitDy=0;entryX=0;entryY=0.5;entryDx=0;entryDy=0;" parent="1" source="RIlo6Lyj0Yrd-4PUd2Lp-4" target="RIlo6Lyj0Yrd-4PUd2Lp-5" edge="1">
          <mxGeometry width="50" height="50" relative="1" as="geometry">
            <mxPoint x="340" y="90" as="sourcePoint"/>
            <mxPoint x="390" y="40" as="targetPoint"/>
          </mxGeometry>
        </mxCell>
        <mxCell id="RIlo6Lyj0Yrd-4PUd2Lp-15" value="" style="edgeStyle=elbowEdgeStyle;elbow=horizontal;endArrow=classic;html=1;exitX=1;exitY=0.5;exitDx=0;exitDy=0;entryX=0;entryY=0.5;entryDx=0;entryDy=0;" parent="1" source="RIlo6Lyj0Yrd-4PUd2Lp-4" target="RIlo6Lyj0Yrd-4PUd2Lp-7" edge="1">
          <mxGeometry width="50" height="50" relative="1" as="geometry">
            <mxPoint x="350" y="95" as="sourcePoint"/>
            <mxPoint x="400" y="35" as="targetPoint"/>
          </mxGeometry>
        </mxCell>
        <mxCell id="RIlo6Lyj0Yrd-4PUd2Lp-16" value="" style="edgeStyle=elbowEdgeStyle;elbow=horizontal;endArrow=classic;html=1;exitX=1;exitY=0.5;exitDx=0;exitDy=0;entryX=0;entryY=0.5;entryDx=0;entryDy=0;" parent="1" source="RIlo6Lyj0Yrd-4PUd2Lp-4" target="RIlo6Lyj0Yrd-4PUd2Lp-6" edge="1">
          <mxGeometry width="50" height="50" relative="1" as="geometry">
            <mxPoint x="360" y="105" as="sourcePoint"/>
            <mxPoint x="410" y="45" as="targetPoint"/>
          </mxGeometry>
        </mxCell>
        <mxCell id="RIlo6Lyj0Yrd-4PUd2Lp-17" value="差异的形成" style="rounded=1;whiteSpace=wrap;html=1;gradientColor=#ffd966;fillColor=#fff2cc;strokeColor=#d6b656;" parent="1" vertex="1">
          <mxGeometry x="270" y="285" width="70" height="30" as="geometry"/>
        </mxCell>
        <mxCell id="RIlo6Lyj0Yrd-4PUd2Lp-18" value="内因:智能方向" style="rounded=1;whiteSpace=wrap;html=1;gradientColor=#ffd966;fillColor=#fff2cc;strokeColor=#d6b656;" parent="1" vertex="1">
          <mxGeometry x="390" y="215" width="100" height="30" as="geometry"/>
        </mxCell>
        <mxCell id="RIlo6Lyj0Yrd-4PUd2Lp-19" value="外因:环境及性格" style="rounded=1;whiteSpace=wrap;html=1;gradientColor=#97d077;fillColor=#d5e8d4;strokeColor=#82b366;" parent="1" vertex="1">
          <mxGeometry x="390" y="365" width="100" height="30" as="geometry"/>
        </mxCell>
        <mxCell id="RIlo6Lyj0Yrd-4PUd2Lp-26" value="" style="edgeStyle=orthogonalEdgeStyle;rounded=0;orthogonalLoop=1;jettySize=auto;html=1;" parent="1" source="RIlo6Lyj0Yrd-4PUd2Lp-20" target="RIlo6Lyj0Yrd-4PUd2Lp-25" edge="1">
          <mxGeometry relative="1" as="geometry"/>
        </mxCell>
        <mxCell id="RIlo6Lyj0Yrd-4PUd2Lp-20" value="抽象的空间构建能力" style="rounded=1;whiteSpace=wrap;html=1;gradientColor=#ffd966;fillColor=#fff2cc;strokeColor=#d6b656;" parent="1" vertex="1">
          <mxGeometry x="525" y="176" width="125" height="30" as="geometry"/>
        </mxCell>
        <mxCell id="RIlo6Lyj0Yrd-4PUd2Lp-25" value="语言" style="rounded=1;whiteSpace=wrap;html=1;gradientColor=#ffd966;fillColor=#fff2cc;strokeColor=#d6b656;" parent="1" vertex="1">
          <mxGeometry x="680" y="176" width="50" height="30" as="geometry"/>
        </mxCell>
        <mxCell id="RIlo6Lyj0Yrd-4PUd2Lp-28" value="" style="edgeStyle=orthogonalEdgeStyle;rounded=0;orthogonalLoop=1;jettySize=auto;html=1;" parent="1" source="RIlo6Lyj0Yrd-4PUd2Lp-23" target="RIlo6Lyj0Yrd-4PUd2Lp-27" edge="1">
          <mxGeometry relative="1" as="geometry"/>
        </mxCell>
        <mxCell id="RIlo6Lyj0Yrd-4PUd2Lp-23" value="严谨的顺序逻辑推理" style="rounded=1;whiteSpace=wrap;html=1;gradientColor=#ffd966;fillColor=#fff2cc;strokeColor=#d6b656;" parent="1" vertex="1">
          <mxGeometry x="525" y="221" width="125" height="30" as="geometry"/>
        </mxCell>
        <mxCell id="RIlo6Lyj0Yrd-4PUd2Lp-27" value="逻辑" style="rounded=1;whiteSpace=wrap;html=1;gradientColor=#ffd966;fillColor=#fff2cc;strokeColor=#d6b656;" parent="1" vertex="1">
          <mxGeometry x="680" y="221" width="50" height="30" as="geometry"/>
        </mxCell>
        <mxCell id="RIlo6Lyj0Yrd-4PUd2Lp-30" value="" style="edgeStyle=orthogonalEdgeStyle;rounded=0;orthogonalLoop=1;jettySize=auto;html=1;" parent="1" source="RIlo6Lyj0Yrd-4PUd2Lp-24" target="RIlo6Lyj0Yrd-4PUd2Lp-29" edge="1">
          <mxGeometry relative="1" as="geometry"/>
        </mxCell>
        <mxCell id="RIlo6Lyj0Yrd-4PUd2Lp-24" value="对身体器官的控制力" style="rounded=1;whiteSpace=wrap;html=1;gradientColor=#ffd966;fillColor=#fff2cc;strokeColor=#d6b656;" parent="1" vertex="1">
          <mxGeometry x="525" y="266" width="125" height="30" as="geometry"/>
        </mxCell>
        <mxCell id="RIlo6Lyj0Yrd-4PUd2Lp-29" value="动手" style="rounded=1;whiteSpace=wrap;html=1;gradientColor=#ffd966;fillColor=#fff2cc;strokeColor=#d6b656;" parent="1" vertex="1">
          <mxGeometry x="680" y="266" width="50" height="30" as="geometry"/>
        </mxCell>
        <mxCell id="RIlo6Lyj0Yrd-4PUd2Lp-31" value="学习效率" style="rounded=1;whiteSpace=wrap;html=1;gradientColor=#b3b3b3;fillColor=#f5f5f5;strokeColor=#666666;" parent="1" vertex="1">
          <mxGeometry x="270" y="554" width="70" height="30" as="geometry"/>
        </mxCell>
        <mxCell id="RIlo6Lyj0Yrd-4PUd2Lp-32" value="环境" style="rounded=1;whiteSpace=wrap;html=1;gradientColor=#97d077;fillColor=#d5e8d4;strokeColor=#82b366;" parent="1" vertex="1">
          <mxGeometry x="528" y="325" width="43" height="30" as="geometry"/>
        </mxCell>
        <mxCell id="RIlo6Lyj0Yrd-4PUd2Lp-33" value="性格" style="rounded=1;whiteSpace=wrap;html=1;gradientColor=#97d077;fillColor=#d5e8d4;strokeColor=#82b366;" parent="1" vertex="1">
          <mxGeometry x="528" y="410" width="42" height="30" as="geometry"/>
        </mxCell>
        <mxCell id="RIlo6Lyj0Yrd-4PUd2Lp-35" value="学习工具" style="rounded=1;whiteSpace=wrap;html=1;gradientColor=#97d077;fillColor=#d5e8d4;strokeColor=#82b366;" parent="1" vertex="1">
          <mxGeometry x="610" y="302" width="70" height="30" as="geometry"/>
        </mxCell>
        <mxCell id="RIlo6Lyj0Yrd-4PUd2Lp-36" value="家庭心理氛围" style="rounded=1;whiteSpace=wrap;html=1;gradientColor=#97d077;fillColor=#d5e8d4;strokeColor=#82b366;" parent="1" vertex="1">
          <mxGeometry x="610" y="350" width="80" height="30" as="geometry"/>
        </mxCell>
        <mxCell id="RIlo6Lyj0Yrd-4PUd2Lp-37" value="学习动机的人格" style="rounded=1;whiteSpace=wrap;html=1;gradientColor=#97d077;fillColor=#d5e8d4;strokeColor=#82b366;" parent="1" vertex="1">
          <mxGeometry x="610" y="410" width="90" height="30" as="geometry"/>
        </mxCell>
        <mxCell id="RIlo6Lyj0Yrd-4PUd2Lp-39" value="" style="edgeStyle=elbowEdgeStyle;elbow=horizontal;endArrow=classic;html=1;exitX=1;exitY=0.5;exitDx=0;exitDy=0;entryX=0;entryY=0.5;entryDx=0;entryDy=0;" parent="1" source="RIlo6Lyj0Yrd-4PUd2Lp-17" target="RIlo6Lyj0Yrd-4PUd2Lp-18" edge="1">
          <mxGeometry width="50" height="50" relative="1" as="geometry">
            <mxPoint x="350" y="95" as="sourcePoint"/>
            <mxPoint x="400" y="35" as="targetPoint"/>
          </mxGeometry>
        </mxCell>
        <mxCell id="RIlo6Lyj0Yrd-4PUd2Lp-40" value="" style="edgeStyle=elbowEdgeStyle;elbow=horizontal;endArrow=classic;html=1;exitX=1;exitY=0.5;exitDx=0;exitDy=0;entryX=0;entryY=0.5;entryDx=0;entryDy=0;" parent="1" source="RIlo6Lyj0Yrd-4PUd2Lp-17" target="RIlo6Lyj0Yrd-4PUd2Lp-19" edge="1">
          <mxGeometry width="50" height="50" relative="1" as="geometry">
            <mxPoint x="360" y="105" as="sourcePoint"/>
            <mxPoint x="410" y="45" as="targetPoint"/>
          </mxGeometry>
        </mxCell>
        <mxCell id="RIlo6Lyj0Yrd-4PUd2Lp-41" value="" style="edgeStyle=elbowEdgeStyle;elbow=horizontal;endArrow=classic;html=1;entryX=0;entryY=0.5;entryDx=0;entryDy=0;exitX=1;exitY=0.5;exitDx=0;exitDy=0;" parent="1" source="RIlo6Lyj0Yrd-4PUd2Lp-18" target="RIlo6Lyj0Yrd-4PUd2Lp-20" edge="1">
          <mxGeometry width="50" height="50" relative="1" as="geometry">
            <mxPoint x="490" y="226" as="sourcePoint"/>
            <mxPoint x="420" y="51" as="targetPoint"/>
          </mxGeometry>
        </mxCell>
        <mxCell id="RIlo6Lyj0Yrd-4PUd2Lp-42" value="" style="edgeStyle=elbowEdgeStyle;elbow=horizontal;endArrow=classic;html=1;entryX=0;entryY=0.5;entryDx=0;entryDy=0;exitX=1;exitY=0.5;exitDx=0;exitDy=0;" parent="1" source="RIlo6Lyj0Yrd-4PUd2Lp-18" target="RIlo6Lyj0Yrd-4PUd2Lp-23" edge="1">
          <mxGeometry width="50" height="50" relative="1" as="geometry">
            <mxPoint x="490" y="226" as="sourcePoint"/>
            <mxPoint x="535" y="201" as="targetPoint"/>
          </mxGeometry>
        </mxCell>
        <mxCell id="RIlo6Lyj0Yrd-4PUd2Lp-43" value="" style="edgeStyle=elbowEdgeStyle;elbow=horizontal;endArrow=classic;html=1;entryX=0;entryY=0.5;entryDx=0;entryDy=0;exitX=1;exitY=0.5;exitDx=0;exitDy=0;" parent="1" source="RIlo6Lyj0Yrd-4PUd2Lp-18" target="RIlo6Lyj0Yrd-4PUd2Lp-24" edge="1">
          <mxGeometry width="50" height="50" relative="1" as="geometry">
            <mxPoint x="490" y="226" as="sourcePoint"/>
            <mxPoint x="545" y="211" as="targetPoint"/>
          </mxGeometry>
        </mxCell>
        <mxCell id="RIlo6Lyj0Yrd-4PUd2Lp-44" value="" style="edgeStyle=elbowEdgeStyle;elbow=horizontal;endArrow=classic;html=1;entryX=0;entryY=0.5;entryDx=0;entryDy=0;exitX=1;exitY=0.5;exitDx=0;exitDy=0;" parent="1" source="RIlo6Lyj0Yrd-4PUd2Lp-19" target="RIlo6Lyj0Yrd-4PUd2Lp-32" edge="1">
          <mxGeometry width="50" height="50" relative="1" as="geometry">
            <mxPoint x="520" y="260" as="sourcePoint"/>
            <mxPoint x="555" y="225" as="targetPoint"/>
          </mxGeometry>
        </mxCell>
        <mxCell id="RIlo6Lyj0Yrd-4PUd2Lp-45" value="" style="edgeStyle=elbowEdgeStyle;elbow=horizontal;endArrow=classic;html=1;entryX=0;entryY=0.5;entryDx=0;entryDy=0;exitX=1;exitY=0.5;exitDx=0;exitDy=0;" parent="1" source="RIlo6Lyj0Yrd-4PUd2Lp-19" target="RIlo6Lyj0Yrd-4PUd2Lp-33" edge="1">
          <mxGeometry width="50" height="50" relative="1" as="geometry">
            <mxPoint x="530" y="270" as="sourcePoint"/>
            <mxPoint x="565" y="235" as="targetPoint"/>
          </mxGeometry>
        </mxCell>
        <mxCell id="RIlo6Lyj0Yrd-4PUd2Lp-46" value="" style="edgeStyle=elbowEdgeStyle;elbow=horizontal;endArrow=classic;html=1;entryX=0;entryY=0.5;entryDx=0;entryDy=0;exitX=1;exitY=0.5;exitDx=0;exitDy=0;gradientColor=#97d077;fillColor=#d5e8d4;strokeColor=#000000;" parent="1" source="RIlo6Lyj0Yrd-4PUd2Lp-32" target="RIlo6Lyj0Yrd-4PUd2Lp-35" edge="1">
          <mxGeometry width="50" height="50" relative="1" as="geometry">
            <mxPoint x="540" y="280" as="sourcePoint"/>
            <mxPoint x="575" y="245" as="targetPoint"/>
          </mxGeometry>
        </mxCell>
        <mxCell id="RIlo6Lyj0Yrd-4PUd2Lp-47" value="" style="edgeStyle=elbowEdgeStyle;elbow=horizontal;endArrow=classic;html=1;entryX=0;entryY=0.5;entryDx=0;entryDy=0;exitX=1;exitY=0.5;exitDx=0;exitDy=0;gradientColor=#97d077;fillColor=#d5e8d4;strokeColor=#000000;" parent="1" source="RIlo6Lyj0Yrd-4PUd2Lp-32" target="RIlo6Lyj0Yrd-4PUd2Lp-36" edge="1">
          <mxGeometry width="50" height="50" relative="1" as="geometry">
            <mxPoint x="550" y="290" as="sourcePoint"/>
            <mxPoint x="585" y="255" as="targetPoint"/>
          </mxGeometry>
        </mxCell>
        <mxCell id="RIlo6Lyj0Yrd-4PUd2Lp-48" value="" style="edgeStyle=elbowEdgeStyle;elbow=horizontal;endArrow=classic;html=1;entryX=0;entryY=0.5;entryDx=0;entryDy=0;exitX=1;exitY=0.5;exitDx=0;exitDy=0;gradientColor=#97d077;fillColor=#d5e8d4;strokeColor=#000000;" parent="1" source="RIlo6Lyj0Yrd-4PUd2Lp-33" target="RIlo6Lyj0Yrd-4PUd2Lp-37" edge="1">
          <mxGeometry width="50" height="50" relative="1" as="geometry">
            <mxPoint x="560" y="300" as="sourcePoint"/>
            <mxPoint x="595" y="265" as="targetPoint"/>
          </mxGeometry>
        </mxCell>
        <mxCell id="RIlo6Lyj0Yrd-4PUd2Lp-49" value="" style="edgeStyle=elbowEdgeStyle;elbow=horizontal;endArrow=classic;html=1;entryX=0;entryY=0.5;entryDx=0;entryDy=0;" parent="1" source="RIlo6Lyj0Yrd-4PUd2Lp-1" target="RIlo6Lyj0Yrd-4PUd2Lp-4" edge="1">
          <mxGeometry width="50" height="50" relative="1" as="geometry">
            <mxPoint x="570" y="310" as="sourcePoint"/>
            <mxPoint x="605" y="275" as="targetPoint"/>
          </mxGeometry>
        </mxCell>
        <mxCell id="RIlo6Lyj0Yrd-4PUd2Lp-50" value="" style="edgeStyle=elbowEdgeStyle;elbow=horizontal;endArrow=classic;html=1;entryX=0;entryY=0.5;entryDx=0;entryDy=0;exitX=1;exitY=0.5;exitDx=0;exitDy=0;" parent="1" source="RIlo6Lyj0Yrd-4PUd2Lp-1" target="RIlo6Lyj0Yrd-4PUd2Lp-17" edge="1">
          <mxGeometry width="50" height="50" relative="1" as="geometry">
            <mxPoint x="230" y="225" as="sourcePoint"/>
            <mxPoint x="280" y="95" as="targetPoint"/>
          </mxGeometry>
        </mxCell>
        <mxCell id="RIlo6Lyj0Yrd-4PUd2Lp-51" value="正确认识自我找方法" style="rounded=1;whiteSpace=wrap;html=1;gradientColor=#b3b3b3;fillColor=#f5f5f5;strokeColor=#666666;" parent="1" vertex="1">
          <mxGeometry x="390" y="490" width="120" height="30" as="geometry"/>
        </mxCell>
        <mxCell id="RIlo6Lyj0Yrd-4PUd2Lp-52" value="自律:自我管理控制" style="rounded=1;whiteSpace=wrap;html=1;gradientColor=#b3b3b3;fillColor=#f5f5f5;strokeColor=#666666;" parent="1" vertex="1">
          <mxGeometry x="392" y="554" width="118" height="30" as="geometry"/>
        </mxCell>
        <mxCell id="RIlo6Lyj0Yrd-4PUd2Lp-53" value="条理习惯的培养,孩子会收获&quot;细心&quot;" style="rounded=1;whiteSpace=wrap;html=1;gradientColor=#b3b3b3;fillColor=#f5f5f5;strokeColor=#666666;" parent="1" vertex="1">
          <mxGeometry x="552.5" y="455" width="194" height="30" as="geometry"/>
        </mxCell>
        <mxCell id="RIlo6Lyj0Yrd-4PUd2Lp-54" value="学会利用时间" style="rounded=1;whiteSpace=wrap;html=1;gradientColor=#b3b3b3;fillColor=#f5f5f5;strokeColor=#666666;" parent="1" vertex="1">
          <mxGeometry x="390" y="618" width="120" height="30" as="geometry"/>
        </mxCell>
        <mxCell id="RIlo6Lyj0Yrd-4PUd2Lp-55" value="遗忘顺序:由于是先快后慢,所以及时的复习是有必要的" style="rounded=1;whiteSpace=wrap;html=1;gradientColor=#b3b3b3;fillColor=#f5f5f5;strokeColor=#666666;" parent="1" vertex="1">
          <mxGeometry x="553.5" y="520" width="193" height="30" as="geometry"/>
        </mxCell>
        <mxCell id="RIlo6Lyj0Yrd-4PUd2Lp-60" value="" style="edgeStyle=elbowEdgeStyle;elbow=horizontal;endArrow=classic;html=1;exitX=1;exitY=0.5;exitDx=0;exitDy=0;entryX=0;entryY=0.5;entryDx=0;entryDy=0;" parent="1" source="RIlo6Lyj0Yrd-4PUd2Lp-31" target="RIlo6Lyj0Yrd-4PUd2Lp-51" edge="1">
          <mxGeometry width="50" height="50" relative="1" as="geometry">
            <mxPoint x="350" y="310" as="sourcePoint"/>
            <mxPoint x="400" y="240" as="targetPoint"/>
          </mxGeometry>
        </mxCell>
        <mxCell id="RIlo6Lyj0Yrd-4PUd2Lp-61" value="" style="edgeStyle=elbowEdgeStyle;elbow=horizontal;endArrow=classic;html=1;exitX=1;exitY=0.5;exitDx=0;exitDy=0;entryX=0;entryY=0.5;entryDx=0;entryDy=0;" parent="1" source="RIlo6Lyj0Yrd-4PUd2Lp-31" target="RIlo6Lyj0Yrd-4PUd2Lp-54" edge="1">
          <mxGeometry width="50" height="50" relative="1" as="geometry">
            <mxPoint x="350" y="579" as="sourcePoint"/>
            <mxPoint x="400" y="515" as="targetPoint"/>
          </mxGeometry>
        </mxCell>
        <mxCell id="RIlo6Lyj0Yrd-4PUd2Lp-62" value="" style="edgeStyle=elbowEdgeStyle;elbow=horizontal;endArrow=classic;html=1;exitX=1;exitY=0.5;exitDx=0;exitDy=0;entryX=0;entryY=0.5;entryDx=0;entryDy=0;" parent="1" source="RIlo6Lyj0Yrd-4PUd2Lp-31" target="RIlo6Lyj0Yrd-4PUd2Lp-52" edge="1">
          <mxGeometry width="50" height="50" relative="1" as="geometry">
            <mxPoint x="360" y="589" as="sourcePoint"/>
            <mxPoint x="410" y="525" as="targetPoint"/>
          </mxGeometry>
        </mxCell>
        <mxCell id="RIlo6Lyj0Yrd-4PUd2Lp-63" value="" style="edgeStyle=elbowEdgeStyle;elbow=horizontal;endArrow=classic;html=1;exitX=1;exitY=0.5;exitDx=0;exitDy=0;entryX=0;entryY=0.5;entryDx=0;entryDy=0;" parent="1" source="RIlo6Lyj0Yrd-4PUd2Lp-51" target="RIlo6Lyj0Yrd-4PUd2Lp-53" edge="1">
          <mxGeometry width="50" height="50" relative="1" as="geometry">
            <mxPoint x="370" y="599" as="sourcePoint"/>
            <mxPoint x="420" y="535" as="targetPoint"/>
          </mxGeometry>
        </mxCell>
        <mxCell id="RIlo6Lyj0Yrd-4PUd2Lp-64" value="" style="edgeStyle=elbowEdgeStyle;elbow=horizontal;endArrow=classic;html=1;exitX=1;exitY=0.5;exitDx=0;exitDy=0;entryX=0;entryY=0.5;entryDx=0;entryDy=0;" parent="1" source="RIlo6Lyj0Yrd-4PUd2Lp-51" target="RIlo6Lyj0Yrd-4PUd2Lp-55" edge="1">
          <mxGeometry width="50" height="50" relative="1" as="geometry">
            <mxPoint x="380" y="609" as="sourcePoint"/>
            <mxPoint x="430" y="545" as="targetPoint"/>
          </mxGeometry>
        </mxCell>
        <mxCell id="RIlo6Lyj0Yrd-4PUd2Lp-65" value="与孩子的沟通" style="rounded=1;whiteSpace=wrap;html=1;gradientColor=#ea6b66;fillColor=#f8cecc;strokeColor=#b85450;" parent="1" vertex="1">
          <mxGeometry x="270" y="700" width="80" height="30" as="geometry"/>
        </mxCell>
        <mxCell id="RIlo6Lyj0Yrd-4PUd2Lp-66" value="听孩子讲什么" style="rounded=1;whiteSpace=wrap;html=1;gradientColor=#ea6b66;fillColor=#f8cecc;strokeColor=#b85450;" parent="1" vertex="1">
          <mxGeometry x="392" y="670" width="118" height="30" as="geometry"/>
        </mxCell>
        <mxCell id="RIlo6Lyj0Yrd-4PUd2Lp-67" value="说什么孩子才能理解" style="rounded=1;whiteSpace=wrap;html=1;gradientColor=#ea6b66;fillColor=#f8cecc;strokeColor=#b85450;" parent="1" vertex="1">
          <mxGeometry x="392" y="722" width="118" height="30" as="geometry"/>
        </mxCell>
        <mxCell id="RIlo6Lyj0Yrd-4PUd2Lp-70" value="" style="edgeStyle=elbowEdgeStyle;elbow=horizontal;endArrow=classic;html=1;exitX=1;exitY=0.5;exitDx=0;exitDy=0;entryX=0;entryY=0.5;entryDx=0;entryDy=0;" parent="1" source="RIlo6Lyj0Yrd-4PUd2Lp-65" target="RIlo6Lyj0Yrd-4PUd2Lp-66" edge="1">
          <mxGeometry width="50" height="50" relative="1" as="geometry">
            <mxPoint x="350" y="579" as="sourcePoint"/>
            <mxPoint x="400" y="515" as="targetPoint"/>
          </mxGeometry>
        </mxCell>
        <mxCell id="RIlo6Lyj0Yrd-4PUd2Lp-71" value="" style="edgeStyle=elbowEdgeStyle;elbow=horizontal;endArrow=classic;html=1;exitX=1;exitY=0.5;exitDx=0;exitDy=0;entryX=0;entryY=0.5;entryDx=0;entryDy=0;" parent="1" source="RIlo6Lyj0Yrd-4PUd2Lp-65" target="RIlo6Lyj0Yrd-4PUd2Lp-67" edge="1">
          <mxGeometry width="50" height="50" relative="1" as="geometry">
            <mxPoint x="360" y="725" as="sourcePoint"/>
            <mxPoint x="402" y="695" as="targetPoint"/>
          </mxGeometry>
        </mxCell>
        <mxCell id="RIlo6Lyj0Yrd-4PUd2Lp-72" value="" style="edgeStyle=elbowEdgeStyle;elbow=horizontal;endArrow=classic;html=1;exitX=1;exitY=0.5;exitDx=0;exitDy=0;entryX=0;entryY=0.5;entryDx=0;entryDy=0;" parent="1" source="RIlo6Lyj0Yrd-4PUd2Lp-1" target="RIlo6Lyj0Yrd-4PUd2Lp-65" edge="1">
          <mxGeometry width="50" height="50" relative="1" as="geometry">
            <mxPoint x="370" y="735" as="sourcePoint"/>
            <mxPoint x="412" y="705" as="targetPoint"/>
          </mxGeometry>
        </mxCell>
        <mxCell id="RIlo6Lyj0Yrd-4PUd2Lp-73" value="" style="edgeStyle=elbowEdgeStyle;elbow=horizontal;endArrow=classic;html=1;exitX=1;exitY=0.5;exitDx=0;exitDy=0;entryX=0;entryY=0.5;entryDx=0;entryDy=0;" parent="1" source="RIlo6Lyj0Yrd-4PUd2Lp-1" target="RIlo6Lyj0Yrd-4PUd2Lp-31" edge="1">
          <mxGeometry width="50" height="50" relative="1" as="geometry">
            <mxPoint x="380" y="745" as="sourcePoint"/>
            <mxPoint x="422" y="715" as="targetPoint"/>
          </mxGeometry>
        </mxCell>
        <mxCell id="RIlo6Lyj0Yrd-4PUd2Lp-74" value="" style="edgeStyle=elbowEdgeStyle;elbow=horizontal;endArrow=classic;html=1;exitX=1;exitY=0.5;exitDx=0;exitDy=0;entryX=0;entryY=0.5;entryDx=0;entryDy=0;" parent="1" source="RIlo6Lyj0Yrd-4PUd2Lp-8" target="RIlo6Lyj0Yrd-4PUd2Lp-77" edge="1">
          <mxGeometry width="50" height="50" relative="1" as="geometry">
            <mxPoint x="690" y="90" as="sourcePoint"/>
            <mxPoint x="670" y="90" as="targetPoint"/>
            <Array as="points">
              <mxPoint x="640" y="120"/>
            </Array>
          </mxGeometry>
        </mxCell>
        <mxCell id="RIlo6Lyj0Yrd-4PUd2Lp-75" value="" style="edgeStyle=elbowEdgeStyle;elbow=horizontal;endArrow=classic;html=1;exitX=1;exitY=0.5;exitDx=0;exitDy=0;entryX=0;entryY=0.5;entryDx=0;entryDy=0;" parent="1" source="RIlo6Lyj0Yrd-4PUd2Lp-12" target="RIlo6Lyj0Yrd-4PUd2Lp-77" edge="1">
          <mxGeometry width="50" height="50" relative="1" as="geometry">
            <mxPoint x="680" y="90" as="sourcePoint"/>
            <mxPoint x="670" y="90" as="targetPoint"/>
            <Array as="points">
              <mxPoint x="640" y="110"/>
            </Array>
          </mxGeometry>
        </mxCell>
        <mxCell id="RIlo6Lyj0Yrd-4PUd2Lp-76" value="" style="edgeStyle=elbowEdgeStyle;elbow=horizontal;endArrow=classic;html=1;exitX=1;exitY=0.5;exitDx=0;exitDy=0;entryX=0;entryY=0.5;entryDx=0;entryDy=0;" parent="1" source="RIlo6Lyj0Yrd-4PUd2Lp-10" target="RIlo6Lyj0Yrd-4PUd2Lp-77" edge="1">
          <mxGeometry width="50" height="50" relative="1" as="geometry">
            <mxPoint x="710" y="110" as="sourcePoint"/>
            <mxPoint x="670" y="90" as="targetPoint"/>
          </mxGeometry>
        </mxCell>
        <mxCell id="RIlo6Lyj0Yrd-4PUd2Lp-77" value="只有三者结合运用起来,才能收获最大的学习效果:&lt;br&gt;1:增强理解&lt;br&gt;2:巩固记忆&lt;br&gt;3:做到熟练&lt;br&gt;这样一来,学习其实是一件很简单的事情了!" style="rounded=1;whiteSpace=wrap;html=1;gradientColor=#ffa500;fillColor=#ffcd28;strokeColor=#d79b00;" parent="1" vertex="1">
          <mxGeometry x="675" y="20" width="95" height="130" as="geometry"/>
        </mxCell>
        <mxCell id="RIlo6Lyj0Yrd-4PUd2Lp-81" value="" style="edgeStyle=elbowEdgeStyle;elbow=horizontal;endArrow=classic;html=1;strokeColor=#000000;exitX=1;exitY=0.5;exitDx=0;exitDy=0;entryX=0;entryY=0.5;entryDx=0;entryDy=0;" parent="1" source="RIlo6Lyj0Yrd-4PUd2Lp-66" target="RIlo6Lyj0Yrd-4PUd2Lp-83" edge="1">
          <mxGeometry width="50" height="50" relative="1" as="geometry">
            <mxPoint x="600" y="720" as="sourcePoint"/>
            <mxPoint x="570" y="710" as="targetPoint"/>
            <Array as="points">
              <mxPoint x="520" y="710"/>
              <mxPoint x="540" y="720"/>
            </Array>
          </mxGeometry>
        </mxCell>
        <mxCell id="RIlo6Lyj0Yrd-4PUd2Lp-82" value="" style="edgeStyle=elbowEdgeStyle;elbow=horizontal;endArrow=classic;html=1;strokeColor=#000000;exitX=1;exitY=0.5;exitDx=0;exitDy=0;entryX=0;entryY=0.5;entryDx=0;entryDy=0;" parent="1" source="RIlo6Lyj0Yrd-4PUd2Lp-67" target="RIlo6Lyj0Yrd-4PUd2Lp-83" edge="1">
          <mxGeometry width="50" height="50" relative="1" as="geometry">
            <mxPoint x="520" y="695" as="sourcePoint"/>
            <mxPoint x="570" y="710" as="targetPoint"/>
            <Array as="points">
              <mxPoint x="520" y="730"/>
              <mxPoint x="530" y="720"/>
              <mxPoint x="540" y="730"/>
              <mxPoint x="550" y="720"/>
              <mxPoint x="540" y="650"/>
              <mxPoint x="540" y="710"/>
            </Array>
          </mxGeometry>
        </mxCell>
        <mxCell id="RIlo6Lyj0Yrd-4PUd2Lp-83" value="如何让孩子深刻认识到:&lt;br&gt;没有任何事有捷径或轻易取之,&lt;br&gt;万事都是很难的事实." style="rounded=1;whiteSpace=wrap;html=1;gradientColor=#ffa500;fillColor=#ffcd28;strokeColor=#d79b00;" parent="1" vertex="1">
          <mxGeometry x="542.5" y="684" width="180" height="53" as="geometry"/>
        </mxCell>
        <mxCell id="qeIXNJi3axi2YQPxAnWZ-6" value="&lt;b&gt;八单元：认识小数&lt;/b&gt;" style="rounded=0;whiteSpace=wrap;html=1;fillColor=#60a917;strokeColor=#2D7600;fontColor=#ffffff;fontSize=15;" parent="1" vertex="1">
          <mxGeometry x="330" y="830" width="160" height="40" as="geometry"/>
        </mxCell>
        <mxCell id="qeIXNJi3axi2YQPxAnWZ-7" value="" style="endArrow=none;html=1;strokeColor=#000000;strokeWidth=3;" parent="1" edge="1">
          <mxGeometry width="50" height="50" relative="1" as="geometry">
            <mxPoint x="770" y="880" as="sourcePoint"/>
            <mxPoint x="30" y="880" as="targetPoint"/>
          </mxGeometry>
        </mxCell>
        <mxCell id="qeIXNJi3axi2YQPxAnWZ-8" value="" style="endArrow=none;dashed=1;html=1;strokeColor=#000000;strokeWidth=12;" parent="1" source="qeIXNJi3axi2YQPxAnWZ-10" edge="1">
          <mxGeometry width="50" height="50" relative="1" as="geometry">
            <mxPoint x="400" y="1410" as="sourcePoint"/>
            <mxPoint x="400" y="880" as="targetPoint"/>
          </mxGeometry>
        </mxCell>
        <mxCell id="qeIXNJi3axi2YQPxAnWZ-9" value="1、填空题&lt;br&gt;&amp;nbsp; &amp;nbsp; &amp;nbsp; &amp;nbsp;_&lt;u&gt;实数的一种特殊表现形式&lt;/u&gt;_是小数，小数的表现形式&lt;br&gt;&lt;br&gt;_____&lt;br&gt;&lt;br&gt;2、计算题&lt;br&gt;&amp;nbsp; &amp;nbsp; &amp;nbsp; &amp;nbsp;10.2-4.3=&amp;nbsp; &amp;nbsp; &amp;nbsp; &amp;nbsp; &amp;nbsp; &amp;nbsp; &amp;nbsp;5.5-2.5=&amp;nbsp; &amp;nbsp; &amp;nbsp; &amp;nbsp; &amp;nbsp; &amp;nbsp; &amp;nbsp;2.1-1=&amp;nbsp; &amp;nbsp; &amp;nbsp; &amp;nbsp; &amp;nbsp; &amp;nbsp;&amp;nbsp;&lt;br&gt;&lt;br&gt;&lt;br&gt;&lt;br&gt;3、应用题&lt;br&gt;&amp;nbsp; &amp;nbsp; &amp;nbsp; &amp;nbsp;爸爸的书桌长度为1.8米，我的书桌长度为1.6米，把这个长度单位米换成厘米，标出各自的长度" style="shape=note;whiteSpace=wrap;html=1;backgroundOutline=1;darkOpacity=0.05;size=18;fillColor=#6d8764;strokeColor=#3A5431;fontColor=#ffffff;align=left;" parent="1" vertex="1">
          <mxGeometry x="30" y="900" width="316" height="230" as="geometry"/>
        </mxCell>
        <mxCell id="qeIXNJi3axi2YQPxAnWZ-12" value="&lt;br&gt;1、小数点位置&lt;br&gt;&lt;br&gt;&amp;nbsp; &amp;nbsp; &amp;nbsp; &amp;nbsp; 2.1&amp;nbsp; &amp;nbsp; &amp;nbsp; &amp;nbsp; &amp;nbsp;2.01&amp;nbsp; &amp;nbsp; &amp;nbsp; &amp;nbsp;3.1&amp;nbsp; &amp;nbsp; &amp;nbsp; &amp;nbsp; &amp;nbsp;3&amp;nbsp; &amp;nbsp; &amp;nbsp; 0.01&amp;nbsp; &amp;nbsp; &amp;nbsp; &amp;nbsp; &amp;nbsp;0.1&lt;br&gt;&lt;br&gt;&lt;br&gt;2、小数点最后的一位数加零，其大小不变。&lt;br&gt;比较大小：&lt;br&gt;&amp;nbsp; &amp;nbsp; &amp;nbsp; &amp;nbsp; 2.20&amp;nbsp; &amp;nbsp; 2.2&amp;nbsp; &amp;nbsp; &amp;nbsp; &amp;nbsp; &amp;nbsp;1.0&amp;nbsp; &amp;nbsp;1&amp;nbsp; &amp;nbsp; &amp;nbsp; 5.321&amp;nbsp; &amp;nbsp; 5.320&amp;nbsp; &amp;nbsp; &amp;nbsp; &amp;nbsp; 100&amp;nbsp; &amp;nbsp; 1000&lt;br&gt;3、总结：小数比较大小，第一步比较整数部分、第二部比较小数后面第一位、第二步比较小数点后面第二位，依次往后进行。&lt;br&gt;&lt;span style=&quot;color: rgba(0 , 0 , 0 , 0) ; font-family: monospace ; font-size: 0px ; white-space: nowrap&quot;&gt;&lt;br&gt;&lt;br&gt;&lt;br&gt;&lt;/span&gt;" style="shape=note;whiteSpace=wrap;html=1;backgroundOutline=1;darkOpacity=0.05;size=18;flipV=0;flipH=1;fillColor=#f0a30a;strokeColor=#BD7000;fontColor=#ffffff;align=left;" parent="1" vertex="1">
          <mxGeometry x="453" y="900" width="307" height="230" as="geometry"/>
        </mxCell>
        <mxCell id="qeIXNJi3axi2YQPxAnWZ-16" value="1、计量货币、长度、面积、温度、重量&lt;br&gt;2、在计量过程中，小数点后面的位数越多，我们就可以明白这个计量值越精确，精度越高。" style="shape=note;whiteSpace=wrap;html=1;backgroundOutline=1;darkOpacity=0.05;size=18;fillColor=#6d8764;strokeColor=#3A5431;fontColor=#ffffff;align=left;" parent="1" vertex="1">
          <mxGeometry x="30" y="1170" width="316" height="220" as="geometry"/>
        </mxCell>
        <mxCell id="qeIXNJi3axi2YQPxAnWZ-17" value="&lt;div&gt;&lt;span&gt;1、生活中我们经常使用视线测量法，这样的方法叫估量。&lt;/span&gt;&lt;/div&gt;&lt;div&gt;&lt;span&gt;2、在使用测量工具进行测量的时候，遇到小数点后面某一位上是零以后，就不再继续进行也算是一种估量。因为把测量工具再作细分，还会在零后面产生更多位的小数（精度是一个接近状态的描述，它将如同整数的最大值是永远达不到。&lt;/span&gt;&lt;/div&gt;&lt;div&gt;&lt;span&gt;3、总结：小数是进入微观世界的描述，整数是进入宏观世界的描述。&lt;/span&gt;&lt;/div&gt;" style="shape=note;whiteSpace=wrap;html=1;backgroundOutline=1;darkOpacity=0.05;size=18;flipH=1;fillColor=#f0a30a;strokeColor=#BD7000;fontColor=#ffffff;align=left;" parent="1" vertex="1">
          <mxGeometry x="453" y="1169" width="307" height="221" as="geometry"/>
        </mxCell>
        <mxCell id="qeIXNJi3axi2YQPxAnWZ-19" value="&lt;font color=&quot;#ffffff&quot;&gt;所有题型：&lt;/font&gt;" style="text;html=1;align=center;verticalAlign=middle;resizable=0;points=[];;autosize=1;" parent="1" vertex="1">
          <mxGeometry x="140" y="900" width="80" height="20" as="geometry"/>
        </mxCell>
        <mxCell id="qeIXNJi3axi2YQPxAnWZ-21" value="&lt;font color=&quot;#ffffff&quot;&gt;易错题型：&lt;/font&gt;" style="text;html=1;align=center;verticalAlign=middle;resizable=0;points=[];;autosize=1;" parent="1" vertex="1">
          <mxGeometry x="545" y="900" width="80" height="20" as="geometry"/>
        </mxCell>
        <mxCell id="qeIXNJi3axi2YQPxAnWZ-22" value="&lt;font color=&quot;#ffffff&quot;&gt;所有题型：&lt;/font&gt;" style="text;html=1;align=center;verticalAlign=middle;resizable=0;points=[];;autosize=1;" parent="1" vertex="1">
          <mxGeometry x="140" y="1169" width="80" height="20" as="geometry"/>
        </mxCell>
        <mxCell id="qeIXNJi3axi2YQPxAnWZ-23" value="&lt;font color=&quot;#ffffff&quot;&gt;易错题型：&lt;/font&gt;" style="text;html=1;align=center;verticalAlign=middle;resizable=0;points=[];;autosize=1;" parent="1" vertex="1">
          <mxGeometry x="550" y="1170" width="80" height="20" as="geometry"/>
        </mxCell>
        <mxCell id="qeIXNJi3axi2YQPxAnWZ-24" value="" style="ellipse;whiteSpace=wrap;html=1;aspect=fixed;" parent="1" vertex="1">
          <mxGeometry x="497" y="951.5" width="18" height="18" as="geometry"/>
        </mxCell>
        <mxCell id="qeIXNJi3axi2YQPxAnWZ-25" value="" style="ellipse;whiteSpace=wrap;html=1;aspect=fixed;" parent="1" vertex="1">
          <mxGeometry x="578" y="950" width="20" height="20" as="geometry"/>
        </mxCell>
        <mxCell id="qeIXNJi3axi2YQPxAnWZ-26" value="" style="ellipse;whiteSpace=wrap;html=1;aspect=fixed;" parent="1" vertex="1">
          <mxGeometry x="649" y="950" width="20" height="20" as="geometry"/>
        </mxCell>
        <mxCell id="qeIXNJi3axi2YQPxAnWZ-10" value="&lt;font&gt;&lt;span style=&quot;font-size: 15px&quot;&gt;基础知识&lt;br&gt;&lt;/span&gt;&lt;br&gt;&lt;font style=&quot;font-size: 12px&quot;&gt;1、小数的由来是计量方法的延伸。&lt;br&gt;&lt;/font&gt;2、小数的表现形式：小数点后面的第一位叫十分位、第二位叫百分位、第三位叫千分位、...它与整数的叫法多了&quot;分&quot;&lt;br&gt;&lt;/font&gt;" style="rounded=0;whiteSpace=wrap;html=1;fillColor=#60a917;strokeColor=#2D7600;fontColor=#ffffff;" parent="1" vertex="1">
          <mxGeometry x="350" y="900" width="100" height="230" as="geometry"/>
        </mxCell>
        <mxCell id="qeIXNJi3axi2YQPxAnWZ-30" value="" style="endArrow=none;dashed=1;html=1;strokeColor=#000000;strokeWidth=12;" parent="1" target="qeIXNJi3axi2YQPxAnWZ-10" edge="1">
          <mxGeometry width="50" height="50" relative="1" as="geometry">
            <mxPoint x="400" y="1470" as="sourcePoint"/>
            <mxPoint x="400" y="880" as="targetPoint"/>
          </mxGeometry>
        </mxCell>
        <mxCell id="qeIXNJi3axi2YQPxAnWZ-11" value="&lt;font&gt;&lt;span style=&quot;font-size: 15px&quot;&gt;重点知识&lt;/span&gt;&lt;br&gt;&lt;font style=&quot;font-size: 12px&quot;&gt;&lt;br&gt;&lt;div style=&quot;text-align: left&quot;&gt;&lt;span&gt;1、小数生活中的应用，由于生活中所有对象都具有一个共同的属性（量）当计量一个物体时，整数不足以表示精确度的时候，小数就诞生了。&lt;/span&gt;&lt;/div&gt;&lt;/font&gt;&lt;div style=&quot;text-align: left&quot;&gt;&lt;span&gt;2、小数进位制，依然遵循整数的进位方法（十进制）&lt;/span&gt;&lt;/div&gt;&lt;/font&gt;" style="rounded=0;whiteSpace=wrap;html=1;fillColor=#60a917;strokeColor=#2D7600;fontColor=#ffffff;" parent="1" vertex="1">
          <mxGeometry x="350" y="1170" width="100" height="220" as="geometry"/>
        </mxCell>
      </root>
    </mxGraphModel>
  </diagram>
</mxfile>
